<?xml version="1.0" encoding="utf-8"?>
<!-- Generator: Adobe Illustrator 26.0.2, SVG Export Plug-In . SVG Version: 6.00 Build 0)  -->
<svg version="1.1" xmlns="http://www.w3.org/2000/svg" xmlns:xlink="http://www.w3.org/1999/xlink" x="0px" y="0px"
	 viewBox="0 0 100 100" style="enable-background:new 0 0 100 100;" xml:space="preserve">
<style type="text/css">
	.st0{fill:#009F54;}
	.st1{fill:#ED1C24;}
	.st2{fill:#00ADDC;}
	.st3{fill:none;stroke:#000000;stroke-width:0.4;stroke-miterlimit:10;}
</style>
<g id="Layer_2">
	<polygon class="st0" points="9.5,33.3 14.3,33.3 14.3,23.8 19.1,23.8 19.1,19 23.8,19 23.8,14.3 33.3,14.3 33.4,9.5 47.6,9.5 
		47.6,4.8 52.4,4.8 52.4,9.5 66.7,9.5 66.7,14.3 76.2,14.3 76.2,19 81,19 81,23.8 85.7,23.8 85.7,33.3 90.5,33.3 90.5,47.6 
		95.2,47.6 95.2,52.4 90.5,52.4 90.5,66.7 85.7,66.7 85.7,76.2 81,76.2 81,81 76.2,81 76.2,85.7 66.7,85.7 66.7,90.5 52.4,90.5 
		52.4,95.2 47.6,95.2 47.6,90.5 33.4,90.5 33.4,85.7 23.8,85.7 23.8,81 19.1,81 19.1,76.2 14.3,76.2 14.3,66.7 9.5,66.7 9.5,52.4 
		4.8,52.4 4.8,47.6 9.5,47.6 	"/>
</g>
<g id="Layer_3">
	<rect x="23.8" y="47.6" class="st1" width="28.6" height="28.6"/>
	<rect x="47.6" y="47.6" class="st2" width="4.8" height="4.8"/>
</g>
<g id="Layer_4">
	<g>
		<g>
			<path d="M99.6,0.4v99.2H0.4V0.4H99.6 M100,0H0v100h100V0L100,0z"/>
		</g>
		<line class="st3" x1="100" y1="4.8" x2="0" y2="4.8"/>
		<line class="st3" x1="100" y1="9.5" x2="0" y2="9.5"/>
		<line class="st3" x1="100" y1="14.3" x2="0" y2="14.3"/>
		<line class="st3" x1="100" y1="19" x2="0" y2="19"/>
		<line class="st3" x1="100" y1="23.8" x2="0" y2="23.8"/>
		<polyline class="st3" points="28.6,28.6 28.6,28.6 0,28.6 100,28.6 		"/>
		<line class="st3" x1="100" y1="33.3" x2="0" y2="33.3"/>
		<line class="st3" x1="100" y1="38.1" x2="0" y2="38.1"/>
		<line class="st3" x1="100" y1="42.9" x2="0" y2="42.9"/>
		<line class="st3" x1="100" y1="47.6" x2="0" y2="47.6"/>
		<line class="st3" x1="100" y1="52.4" x2="0" y2="52.4"/>
		<line class="st3" x1="100" y1="57.1" x2="0" y2="57.1"/>
		<line class="st3" x1="100" y1="61.9" x2="0" y2="61.9"/>
		<line class="st3" x1="100" y1="66.7" x2="0" y2="66.7"/>
		<line class="st3" x1="100" y1="71.4" x2="0" y2="71.4"/>
		<line class="st3" x1="100" y1="76.2" x2="0" y2="76.2"/>
		<line class="st3" x1="100" y1="81" x2="0" y2="81"/>
		<line class="st3" x1="100" y1="85.7" x2="0" y2="85.7"/>
		<line class="st3" x1="100" y1="90.5" x2="0" y2="90.5"/>
		<line class="st3" x1="100" y1="95.2" x2="0" y2="95.2"/>
		<line class="st3" x1="4.8" y1="100" x2="4.8" y2="0"/>
		<line class="st3" x1="9.5" y1="100" x2="9.5" y2="0"/>
		<line class="st3" x1="14.3" y1="100" x2="14.3" y2="0"/>
		<line class="st3" x1="19" y1="100" x2="19" y2="0"/>
		<line class="st3" x1="23.8" y1="100" x2="23.8" y2="0"/>
		<line class="st3" x1="28.6" y1="100" x2="28.6" y2="0"/>
		<line class="st3" x1="33.3" y1="100" x2="33.3" y2="0"/>
		<line class="st3" x1="38.1" y1="100" x2="38.1" y2="0"/>
		<line class="st3" x1="42.9" y1="100" x2="42.9" y2="0"/>
		<line class="st3" x1="47.6" y1="100" x2="47.6" y2="0"/>
		<line class="st3" x1="52.4" y1="100" x2="52.4" y2="0"/>
		<line class="st3" x1="57.1" y1="100" x2="57.1" y2="0"/>
		<line class="st3" x1="61.9" y1="100" x2="61.9" y2="0"/>
		<line class="st3" x1="66.7" y1="100" x2="66.7" y2="0"/>
		<line class="st3" x1="71.4" y1="100" x2="71.4" y2="0"/>
		<line class="st3" x1="76.2" y1="100" x2="76.2" y2="0"/>
		<line class="st3" x1="81" y1="100" x2="81" y2="0"/>
		<line class="st3" x1="85.7" y1="100" x2="85.7" y2="0"/>
		<line class="st3" x1="90.5" y1="100" x2="90.5" y2="0"/>
		<line class="st3" x1="95.2" y1="100" x2="95.2" y2="0"/>
	</g>
</g>
</svg>
